# xmcd CD database file
#
# Track frame offsets:
#	150
#	27635
#	46847
#
# Disc length: 830 seconds
#
# Revision: 0
# Processed by: cddbd v1.5.1PL0 Copyright (c) Steve Scherf et al.
# Submitted via: CDex 1.51
#
DISCID=1f033c03
DTITLE=no-ikketsu - the numbers of illness
DYEAR=2003
DGENRE=Rock
TTITLE0=Vitamin 64
TTITLE1=illness
TTITLE2=accent
EXTD=YEAR: 2003
EXTT0=
EXTT1=
EXTT2=
PLAYORDER=
